<svg id="Capa_1" enable-background="new 0 0 512 512" height="512" viewBox="0 0 512 512" width="512" xmlns="http://www.w3.org/2000/svg"><g><g><g><path d="m371.268 512c16.845 0 30.5-13.655 30.5-30.5v-383.977h-13.381c-10.443 0-18.909-8.466-18.909-18.909v-58.57l-9.614-17.304c-3.961-1.822-8.19-2.74-12.634-2.74h-262.117c-16.845 0-30.5 13.655-30.5 30.5v451c0 16.845 13.655 30.5 30.5 30.5z" fill="#f4fbff"/><path d="m392.154 97.523v383.977c0 16.845-13.655 30.5-30.5 30.5h65.233c16.845 0 30.5-13.655 30.5-30.5v-371.344c0-4.402-.958-8.703-2.748-12.633z" fill="#e4f6ff"/><path d="m448.453 88.59-79.656-79.657c-2.608-2.608-5.64-4.695-8.933-6.193v75.874c0 10.443 8.466 18.909 18.909 18.909h75.874c-1.499-3.294-3.586-6.326-6.194-8.933z" fill="#e28086"/></g><g><g><g><path d="m214.24 215.357h-90.74c-9.823 0-17.785-7.963-17.785-17.785v-112.516c0-9.823 7.963-17.785 17.785-17.785h90.74c9.823 0 17.785 7.963 17.785 17.785v112.516c0 9.823-7.962 17.785-17.785 17.785z" fill="#bed8fb"/><path d="m168.87 158.546c-28.765 0-53.25 18.3-62.465 43.891 2.118 7.454 8.961 12.92 17.095 12.92h90.74c8.133 0 14.976-5.466 17.095-12.92-9.215-25.59-33.7-43.891-62.465-43.891z" fill="#407093"/></g><g><g><path d="m406.285 289.135h-299.879c-4.267 0-7.726-3.459-7.726-7.726s3.458-7.726 7.726-7.726h299.879c4.267 0 7.726 3.459 7.726 7.726s-3.459 7.726-7.726 7.726z" fill="#407093"/></g><g><path d="m406.285 342.471h-299.879c-4.267 0-7.726-3.459-7.726-7.726s3.458-7.726 7.726-7.726h299.879c4.267 0 7.726 3.459 7.726 7.726s-3.459 7.726-7.726 7.726z" fill="#407093"/></g><g><path d="m406.285 395.807h-299.879c-4.267 0-7.726-3.459-7.726-7.726s3.458-7.726 7.726-7.726h299.879c4.267 0 7.726 3.459 7.726 7.726s-3.459 7.726-7.726 7.726z" fill="#407093"/></g><g><path d="m256 449.143h-149.594c-4.267 0-7.726-3.459-7.726-7.726s3.458-7.726 7.726-7.726h149.594c4.267 0 7.726 3.459 7.726 7.726s-3.459 7.726-7.726 7.726z" fill="#407093"/></g></g></g><g><g><path d="m406.285 198.83h-110.192c-4.267 0-7.726-3.459-7.726-7.726s3.458-7.726 7.726-7.726h110.192c4.267 0 7.726 3.459 7.726 7.726s-3.459 7.726-7.726 7.726z" fill="#407093"/></g><g><path d="m406.285 156.939h-110.192c-4.267 0-7.726-3.459-7.726-7.726s3.458-7.726 7.726-7.726h110.192c4.267 0 7.726 3.459 7.726 7.726s-3.459 7.726-7.726 7.726z" fill="#407093"/></g></g></g></g><g><circle cx="168.87" cy="136.891" fill="#365e7d" r="28.329"/></g></g></svg>